<?xml version="1.0" encoding="utf-8"?>
<!-- Generator: Adobe Illustrator 21.0.0, SVG Export Plug-In . SVG Version: 6.00 Build 0)  -->
<svg version="1.1" id="Social_Icons" xmlns="http://www.w3.org/2000/svg" xmlns:xlink="http://www.w3.org/1999/xlink" x="0px"
	 y="0px" viewBox="0 0 128 128" style="enable-background:new 0 0 128 128;" xml:space="preserve">
<style type="text/css">
	.st0{fill:#FFFFFF;}
</style>
<g id="_x35__stroke">
	<g id="Behance_1_">
		<path id="Behance" class="st0" d="M58.7,32.3c2.4,3.3,3.6,7.3,3.6,11.9c0,4.8-1.2,8.6-3.7,11.5c-1.4,1.6-3.4,3.1-6,4.4
			c4,1.5,7.1,3.7,9.1,6.9c2,3.1,3.1,6.9,3.1,11.4c0,4.6-1.2,8.8-3.5,12.4c-1.5,2.4-3.4,4.5-5.6,6.1c-2.5,1.9-5.5,3.2-8.9,3.9
			c-3.4,0.7-7.2,1-11.2,1H0V24h38.2C47.9,24.1,54.7,26.9,58.7,32.3z M15.8,37.5v17.2H35c3.4,0,6.2-0.6,8.4-1.9
			c2.1-1.3,3.2-3.6,3.2-6.8c0-3.6-1.4-6-4.2-7.2c-2.5-0.8-5.6-1.2-9.4-1.2H15.8z M15.8,67.7v20.8H35c3.4,0,6.1-0.5,8-1.4
			c3.5-1.7,5.2-4.9,5.2-9.7c0-4.1-1.7-6.9-5-8.4c-1.9-0.8-4.5-1.3-7.9-1.3L15.8,67.7L15.8,67.7z M112.7,45.5
			c4.1,1.8,7.5,4.6,10.1,8.5c2.4,3.4,4,7.4,4.7,11.9c0.4,2.6,0.6,6.5,0.5,11.5H85.4c0.3,5.8,2.3,9.8,6.1,12.2
			c2.3,1.4,5.1,2.2,8.4,2.2c3.5,0,6.3-0.9,8.5-2.6c1.2-1,2.2-2.3,3.2-4h15.6c-0.4,3.4-2.3,6.9-5.7,10.4c-5.2,5.6-12.6,8.4-22,8.4
			c-7.8,0-14.7-2.4-20.6-7.1c-6-4.7-8.9-12.4-8.9-23.1c0-10,2.7-17.7,8.1-23c5.4-5.3,12.3-8,20.9-8C104,42.8,108.6,43.7,112.7,45.5z
			 M89.8,58.5c-2.2,2.2-3.5,5.2-4.1,8.9h26.4c-0.3-4-1.6-7-4.1-9.1c-2.5-2.1-5.5-3.1-9.1-3.1C95,55.2,92,56.3,89.8,58.5z M81.8,37.3
			h33.9v-9.7H81.8V37.3z"/>
	</g>
</g>
</svg>
