<?xml version="1.0" encoding="utf-8"?>
<!-- Generator: Adobe Illustrator 21.0.0, SVG Export Plug-In . SVG Version: 6.00 Build 0)  -->
<svg version="1.1" id="Layer_1" xmlns="http://www.w3.org/2000/svg" xmlns:xlink="http://www.w3.org/1999/xlink" x="0px" y="0px"
	 viewBox="0 0 512 512" style="enable-background:new 0 0 512 512;" xml:space="preserve">
<style type="text/css">
	.st0{fill:#FFFFFF;}
</style>
<g>
	<path class="st0" d="M444,141.3c-1.2-2.9-2.6-5.7-4.6-8.1l-110.6-121c-2.5-2.8-5.5-4.8-8.8-6.5c-3.8-2-8.1-2.8-12.5-2.8h-211
		c-16.4,0-30,14-30,31.5v442.4c0,17.7,13.6,32.9,30,32.9h320.8c16.4,0,29.3-15.2,29.3-32.9V154.8C446.5,150,445.9,145.4,444,141.3z
		 M129.8,153.7c0-2,2.4-2.8,4.5-2.8h93.4c2.1,0,3.7,0.8,3.7,2.8V168c0,1.8-1.5,4.1-3.7,4.1h-93.4c-2.1,0-4.5-2.2-4.5-4.1V153.7z
		 M129.8,322.7c0-2,2.4-2.8,4.5-2.8h161.3c2.1,0,3.2,0.8,3.2,2.8v14.3c0,1.8-0.9,4.1-3.2,4.1H134.3c-2.1,0-4.5-2.2-4.5-4.1V322.7z
		 M341,421.4c0,1.8-0.9,4.1-3.2,4.1H134.3c-2.1,0-4.5-2.2-4.5-4.1v-14.3c0-2,2.4-2.8,4.5-2.8h203.5c2.1,0,3.2,0.8,3.2,2.8L341,421.4
		L341,421.4z M383.2,252.4c0,1.8-0.9,4.1-3.2,4.1H134.3c-2.1,0-4.5-2.2-4.5-4.1v-14.3c0-2,2.4-2.8,4.5-2.8H380
		c2.1,0,3.2,0.8,3.2,2.8L383.2,252.4L383.2,252.4z M321.3,152.3c-7.4,0-14.6-6.9-14.6-14.9V50.2l94,102H321.3z"/>
</g>
</svg>
