<?xml version="1.0" encoding="utf-8"?>
<!-- Generator: Adobe Illustrator 21.0.0, SVG Export Plug-In . SVG Version: 6.00 Build 0)  -->
<svg version="1.1" id="Layer_1" xmlns="http://www.w3.org/2000/svg" xmlns:xlink="http://www.w3.org/1999/xlink" x="0px" y="0px"
	 viewBox="0 0 400 400" style="enable-background:new 0 0 400 400;" xml:space="preserve">
<style type="text/css">
	.st0{fill:#FFFFFF;}
</style>
<g id="Logo__x2014__FIXED">
	<g>
		<path class="st0" d="M126.4,361c149.4,0,231.2-123.9,231.2-231.2c0-3.5,0-7-0.2-10.5c15.8-11.4,29.6-25.8,40.6-42.2
			C383.5,83.7,367.8,88,351.3,90c16.8-10,29.6-26,35.8-45c-15.7,9.3-33.1,16-51.7,19.6c-14.9-15.8-36-25.7-59.3-25.7
			c-44.8,0-81.3,36.4-81.3,81.3c0,6.3,0.8,12.5,2.1,18.5C129.5,135.5,69.6,103,29.5,53.9c-7,12-10.9,26-10.9,40.9
			c0,28.2,14.4,53.1,36.1,67.7c-13.3-0.5-25.8-4.1-36.8-10.1c0,0.3,0,0.6,0,1.1c0,39.3,28,72.3,65.1,79.7
			c-6.8,1.9-13.9,2.9-21.4,2.9c-5.2,0-10.3-0.5-15.2-1.4c10.3,32.3,40.4,55.8,75.9,56.4c-27.9,21.9-62.9,34.9-100.9,34.9
			c-6.5,0-13-0.3-19.3-1.1C37.9,347.5,80.6,361,126.4,361"/>
	</g>
</g>
</svg>
