<?xml version="1.0" encoding="utf-8"?>
<!-- Generator: Adobe Illustrator 21.0.0, SVG Export Plug-In . SVG Version: 6.00 Build 0)  -->
<svg version="1.1"
	 id="Слой_1" inkscape:version="0.91 r13725" sodipodi:docname="YouTube_social_white_circle_(2017).svg" xmlns:cc="http://creativecommons.org/ns#" xmlns:dc="http://purl.org/dc/elements/1.1/" xmlns:inkscape="http://www.inkscape.org/namespaces/inkscape" xmlns:rdf="http://www.w3.org/1999/02/22-rdf-syntax-ns#" xmlns:sodipodi="http://sodipodi.sourceforge.net/DTD/sodipodi-0.dtd" xmlns:svg="http://www.w3.org/2000/svg"
	 xmlns="http://www.w3.org/2000/svg" xmlns:xlink="http://www.w3.org/1999/xlink" x="0px" y="0px" viewBox="0 0 300 300"
	 style="enable-background:new 0 0 300 300;" xml:space="preserve">
<style type="text/css">
	.st0{fill:#FFFFFF;}
</style>
<sodipodi:namedview  bordercolor="#666666" borderopacity="1" fit-margin-bottom="0" fit-margin-left="0" fit-margin-right="0" fit-margin-top="0" gridtolerance="10" guidetolerance="10" id="namedview13" inkscape:current-layer="Слой_1" inkscape:cx="140.1615" inkscape:cy="129.72071" inkscape:pageopacity="0" inkscape:pageshadow="2" inkscape:window-height="715" inkscape:window-maximized="1" inkscape:window-width="1366" inkscape:window-x="-8" inkscape:window-y="-8" inkscape:zoom="1.18" objecttolerance="10" pagecolor="#ffffff" showgrid="false">
	</sodipodi:namedview>
<g id="g5360">
	<g id="g4167" transform="matrix(5.9026317,0,0,5.9026317,521.39665,-711.31763)">
		<path id="path4156" inkscape:connector-curvature="0" class="st0" d="M-62.9,128.4c0,0-15.7,0-19.6,1c-2.1,0.6-3.8,2.3-4.4,4.5
			c-1,3.9-1,12.1-1,12.1s0,8.2,1,12.1c0.6,2.1,2.3,3.8,4.4,4.4c4,1.1,19.6,1.1,19.6,1.1s15.7,0,19.7-1c2.1-0.6,3.8-2.3,4.4-4.4
			c1.1-3.9,1.1-12.1,1.1-12.1s0-8.2-1.1-12.1c-0.6-2.1-2.3-3.8-4.4-4.4C-47.2,128.4-62.9,128.4-62.9,128.4z M-67.9,138.4l13.1,7.5
			l-13.1,7.5V138.4L-67.9,138.4z"/>
	</g>
</g>
</svg>
