<?xml version="1.0" encoding="utf-8"?>
<!-- Generator: Adobe Illustrator 21.0.0, SVG Export Plug-In . SVG Version: 6.00 Build 0)  -->
<svg version="1.1" id="Layer_1" xmlns="http://www.w3.org/2000/svg" xmlns:xlink="http://www.w3.org/1999/xlink" x="0px" y="0px"
	 viewBox="0 0 54 54" style="enable-background:new 0 0 54 54;" xml:space="preserve">
<style type="text/css">
	.st0{fill:#FFFFFF;}
</style>
<g>
	<path class="st0" d="M53.7,10.4v33.3c0,2.7-1,5.1-3,7.1c-2,2-4.3,3-7.1,3H10.4c-2.7,0-5.1-1-7.1-3c-2-2-3-4.3-3-7.1V10.4
		c0-2.7,1-5.1,3-7.1s4.3-3,7.1-3h33.2c2.7,0,5.1,1,7.1,3S53.7,7.6,53.7,10.4z M17.2,13.5c0-1.2-0.5-2.2-1.2-3
		C15,9.6,14,9.3,12.7,9.3s-2.5,0.4-3.2,1.1c-0.9,0.7-1.2,1.7-1.2,3c0,1.1,0.4,2.1,1.2,3c0.9,0.7,1.9,1.2,3.2,1.2l0,0
		c1.4,0,2.5-0.4,3.4-1.2C16.8,15.6,17.2,14.6,17.2,13.5z M8.6,44.9h8V20.8h-8C8.6,20.8,8.6,44.9,8.6,44.9z M37.4,44.9h8V31.1
		c0-3.6-0.9-6.2-2.5-8.1c-1.7-1.9-4-2.7-6.7-2.7c-3.1,0-5.6,1.4-7.2,4.1h0.1v-3.5h-8c0.1,1.5,0.1,9.6,0,24.1h8V31.5
		c0-0.9,0.1-1.5,0.2-2c0.4-0.9,0.9-1.5,1.6-2.1c0.7-0.6,1.5-0.9,2.6-0.9c2.7,0,4,1.9,4,5.5v12.9H37.4z"/>
</g>
</svg>
